<svg width="20" height="20" viewBox="0 0 20 20" fill="none" xmlns="http://www.w3.org/2000/svg">
<g clip-path="url(#clip0_552_1249)">
<path d="M18.9668 18.7715C18.918 18.8987 18.7984 18.9845 18.6573 18.9897C18.496 18.9939 18.3542 18.8836 18.3181 18.7237C18.2009 18.2061 17.9337 17.6069 17.5225 16.9416C16.6726 15.5628 15.0636 14.8585 13.5192 15.1894C12.583 15.3928 11.6091 15.8668 10.6244 16.6035C6.61967 19.6065 1.67422 19.0697 1.4647 19.0451C1.3247 19.0296 1.21135 18.9268 1.17645 18.7919C1.15817 18.7222 1.16237 18.6474 1.18679 18.5838C1.2112 18.5202 1.25172 18.4696 1.30466 18.4312C1.32892 18.4125 3.72211 16.6668 4.55783 14.4897C5.18429 12.8577 4.7628 11.4039 3.30393 10.1631C-0.787424 6.68534 0.654138 2.21548 0.984153 1.35576C1.02021 1.26184 1.04303 1.2113 1.04303 1.2113C1.1031 1.08156 1.23531 1.00003 1.37944 1.01373C1.52173 1.02331 1.64351 1.12194 1.6817 1.25862C1.89434 2.00735 2.94869 4.13855 4.17631 4.7415C5.40209 5.34033 5.97154 5.41352 9.79719 2.92163C13.6983 0.378867 18.3457 0.93299 18.5415 0.956252C18.701 0.975867 18.8242 1.10641 18.8385 1.26814C18.8437 1.31858 18.8339 1.37072 18.8166 1.41594C18.7794 1.51284 18.697 1.59239 18.5917 1.62154C17.239 2.00544 15.4689 3.386 14.9503 4.46525C14.9245 4.51464 14.906 4.56285 14.8861 4.61453C14.5874 5.39275 14.4816 7.17897 17.1558 10.3767C19.8217 13.5679 19.021 18.4952 18.9857 18.7046C18.9806 18.7266 18.9754 18.7491 18.9672 18.7705" fill="#B4CA53"/>
<path d="M0.581563 1.06156C0.58749 1.04742 0.5928 1.03641 0.596365 1.02822L0.602392 1.01252L0.604938 1.00849C0.743888 0.708375 1.0562 0.50559 1.41082 0.533261L1.41149 0.531516C1.41593 0.531815 1.42062 0.532345 1.42504 0.532715C1.76447 0.56098 2.05435 0.79802 2.14684 1.12902C2.23808 1.44851 2.53164 2.12453 2.95668 2.7969C3.38995 3.48223 3.89986 4.06763 4.38721 4.30774C4.6905 4.4559 4.9054 4.54591 5.12034 4.58515C5.32292 4.62214 5.55366 4.61804 5.88068 4.52576C6.57211 4.33063 7.61073 3.76977 9.53251 2.51805C13.5865 -0.124432 18.3871 0.45186 18.5981 0.476934L18.6002 0.476731C18.9908 0.524758 19.2815 0.84078 19.3178 1.21954C19.318 1.22148 19.3195 1.2233 19.3196 1.22524L19.3184 1.22578C19.3313 1.36449 19.3046 1.49113 19.267 1.5893C19.1776 1.82164 18.9807 2.01504 18.7206 2.0871C18.1241 2.25718 17.3999 2.66006 16.7554 3.16309C16.1038 3.67176 15.5982 4.23235 15.3856 4.67476L15.382 4.6814L15.3781 4.68891C15.3672 4.70985 15.3583 4.73267 15.3373 4.78734C15.129 5.3302 14.9044 6.93192 17.5259 10.0667C18.95 11.7715 19.4325 13.9167 19.5649 15.621C19.6977 17.3317 19.4834 18.6591 19.4622 18.7849L19.4589 18.7987L19.4569 18.8119C19.4528 18.8298 19.4405 18.8859 19.4181 18.9441C19.2987 19.2547 19.0061 19.4603 18.6749 19.4724L18.6699 19.4725C18.2761 19.4828 17.9331 19.2127 17.8466 18.8302C17.7454 18.3829 17.5063 17.834 17.1113 17.195C16.3652 15.9847 14.9593 15.3757 13.622 15.6614L13.2987 15.7425C12.5402 15.96 11.7391 16.3719 10.9136 16.9895C6.76048 20.1037 1.664 19.5536 1.41031 19.5241L1.41085 19.5253C1.06364 19.4866 0.793081 19.2335 0.70983 18.914L0.708624 18.9145C0.665379 18.7495 0.674376 18.571 0.735929 18.4106L0.788512 18.2997C0.84538 18.1994 0.921346 18.1158 1.0097 18.0494C1.02215 18.0398 1.60377 17.6148 2.28423 16.9294C2.97161 16.237 3.72431 15.313 4.10681 14.3166C4.38851 13.5827 4.42479 12.9196 4.24918 12.3137C4.07234 11.7038 3.66763 11.1062 2.99112 10.5308C-1.35137 6.83957 0.18761 2.08284 0.532945 1.18301C0.552799 1.13128 0.569566 1.0902 0.581563 1.06156ZM1.34818 1.77315C0.945804 2.98143 0.0697141 6.7802 3.61674 9.79526C4.39891 10.4605 4.93476 11.2102 5.17681 12.0453C5.41999 12.8845 5.35342 13.7647 5.00868 14.6628C4.55552 15.8433 3.69385 16.8805 2.96973 17.6099C2.60383 17.9784 2.26427 18.2771 2.01433 18.485C1.96599 18.5252 1.91975 18.5606 1.87843 18.594C3.0381 18.6621 6.76208 18.6796 9.9712 16.4776L10.3345 16.2168C11.232 15.5454 12.1382 15.0707 13.0336 14.8141L13.4167 14.718L13.4179 14.7174C15.0597 14.3658 16.7539 15.0463 17.7449 16.4074L17.9334 16.688C18.2095 17.1347 18.4289 17.5648 18.5866 17.9714C18.6343 17.4404 18.6749 16.6293 18.6025 15.6958C18.4853 14.1872 18.0817 12.4107 17.009 10.9701L16.7848 10.6859C14.0585 7.42569 14.0464 5.45466 14.4355 4.44115C14.4528 4.39603 14.4787 4.32932 14.515 4.2575L14.5144 4.2563C14.5168 4.25135 14.5198 4.24622 14.5222 4.24127C14.8308 3.60862 15.465 2.94494 16.1611 2.40155C16.6758 1.99982 17.2596 1.6384 17.8301 1.388C16.4778 1.32718 13.2776 1.39727 10.4138 3.10553L10.0609 3.32631C8.15788 4.56584 6.9985 5.21334 6.14249 5.45487C5.69581 5.58089 5.3152 5.60255 4.94676 5.53528C4.59066 5.47024 4.27378 5.32635 3.96419 5.17511C3.22457 4.81183 2.59353 4.03029 2.14009 3.31305C1.79504 2.76721 1.517 2.20293 1.34818 1.77315ZM18.46 1.15745L18.4624 1.15638L18.4579 1.15765L18.46 1.15745Z" fill="#1D1D1B"/>
<path d="M10.5234 12.3691H9.17218L8.58011 9.29942L8.15514 13.1283H6.83691L7.60433 6.87134H9.28151L10.0407 10.7682L11.7674 6.87134H13.4446L12.6771 13.1283H11.3589L11.8685 9.29942L10.5255 12.3691H10.5234Z" fill="#1D1D1B"/>
<path d="M10.0411 10.7679L11.7677 6.87134H13.4446L12.6769 13.1283H11.3595L11.8683 9.29911L10.5255 12.3695H9.17195L8.58014 9.29911L8.15532 13.1283H6.83691L7.60452 6.87134H9.28133L10.0411 10.7679ZM11.8517 9.14969L12.1476 9.23172L12.2746 8.1946L11.8517 9.14969ZM8.33013 9.15848L8.70514 9.14383L8.47662 7.96999L8.33013 9.15848Z" fill="#1D1D1B"/>
</g>
<defs>
<clipPath id="clip0_552_1249">
<rect width="20" height="20" fill="white"/>
</clipPath>
</defs>
</svg>
